<svg xmlns="http://www.w3.org/2000/svg" width="980" height="640" viewBox="0 0 980 640" role="img" aria-labelledby="title desc">
  <title id="title">Early bpb_all reversal between C100 and WS</title>
  <desc id="desc">Zoomed early training trajectory. WS starts lower, but C100 overtakes around optimizer step 111 and keeps a widening lead through step 194.</desc>
  <defs>
    <style>
      .font { font-family: Inter, ui-sans-serif, system-ui, -apple-system, BlinkMacSystemFont, "Segoe UI", sans-serif; }
      .grid { stroke: #dfe5ec; stroke-width: 1; }
      .axis { stroke: #cfd7e3; stroke-width: 1.2; }
      .tick { fill: #667085; font-size: 14px; }
      .title { fill: #111827; font-size: 18px; font-weight: 740; }
      .sub { fill: #667085; font-size: 13px; }
      .legend { font-size: 13px; font-weight: 650; }
      .callout { font-size: 13px; font-weight: 650; }
      .small { font-size: 12px; fill: #667085; }
    </style>
    <marker id="arrowRed" markerWidth="8" markerHeight="8" refX="7" refY="4" orient="auto" markerUnits="strokeWidth"><path d="M0,0 L8,4 L0,8 Z" fill="#ef4444"/></marker>
    <marker id="arrowGreen" markerWidth="8" markerHeight="8" refX="7" refY="4" orient="auto" markerUnits="strokeWidth"><path d="M0,0 L8,4 L0,8 Z" fill="#22a455"/></marker>
  </defs>
  <rect width="100%" height="100%" fill="#ffffff"/>
  <text class="font title" x="490" y="32" text-anchor="middle">bpb_all early trajectory</text>
  <text class="font sub" x="490" y="54" text-anchor="middle">zoomed to optimizer step 25-200, where the WS advantage flips</text>
  <rect x="78" y="78" width="400.40" height="490" fill="#ecfdf3" opacity="0.55"/>
  <rect x="478.40" y="78" width="457.60" height="490" fill="#fff1f2" opacity="0.35"/>
  <line x1="478.40" y1="78" x2="478.40" y2="568" stroke="#94a3b8" stroke-width="1.2" stroke-dasharray="6 7"/>
  <line x1="78" y1="111.79" x2="936" y2="111.79" class="grid"/>
  <text class="font tick" x="54" y="116.79" text-anchor="end">2.8</text>
  <line x1="78" y1="196.28" x2="936" y2="196.28" class="grid"/>
  <text class="font tick" x="54" y="201.28" text-anchor="end">2.6</text>
  <line x1="78" y1="280.76" x2="936" y2="280.76" class="grid"/>
  <text class="font tick" x="54" y="285.76" text-anchor="end">2.4</text>
  <line x1="78" y1="365.24" x2="936" y2="365.24" class="grid"/>
  <text class="font tick" x="54" y="370.24" text-anchor="end">2.2</text>
  <line x1="78" y1="449.72" x2="936" y2="449.72" class="grid"/>
  <text class="font tick" x="54" y="454.72" text-anchor="end">2.0</text>
  <line x1="78" y1="534.21" x2="936" y2="534.21" class="grid"/>
  <text class="font tick" x="54" y="539.21" text-anchor="end">1.8</text>
  <line x1="100.00" y1="78" x2="100.00" y2="568" stroke="#edf1f6" stroke-width="1"/>
  <text class="font tick" x="100.00" y="594" text-anchor="middle">25</text>
  <line x1="210.00" y1="78" x2="210.00" y2="568" stroke="#edf1f6" stroke-width="1"/>
  <text class="font tick" x="210.00" y="594" text-anchor="middle">50</text>
  <line x1="320.00" y1="78" x2="320.00" y2="568" stroke="#edf1f6" stroke-width="1"/>
  <text class="font tick" x="320.00" y="594" text-anchor="middle">75</text>
  <line x1="430.00" y1="78" x2="430.00" y2="568" stroke="#edf1f6" stroke-width="1"/>
  <text class="font tick" x="430.00" y="594" text-anchor="middle">100</text>
  <line x1="540.00" y1="78" x2="540.00" y2="568" stroke="#edf1f6" stroke-width="1"/>
  <text class="font tick" x="540.00" y="594" text-anchor="middle">125</text>
  <line x1="650.00" y1="78" x2="650.00" y2="568" stroke="#edf1f6" stroke-width="1"/>
  <text class="font tick" x="650.00" y="594" text-anchor="middle">150</text>
  <line x1="760.00" y1="78" x2="760.00" y2="568" stroke="#edf1f6" stroke-width="1"/>
  <text class="font tick" x="760.00" y="594" text-anchor="middle">175</text>
  <line x1="870.00" y1="78" x2="870.00" y2="568" stroke="#edf1f6" stroke-width="1"/>
  <text class="font tick" x="870.00" y="594" text-anchor="middle">200</text>
  <line x1="78" y1="568" x2="936" y2="568" class="axis"/>
  <line x1="78" y1="78" x2="78" y2="568" class="axis"/>
  <path d="M 108.80 107.67 C 129.33 125.69, 190.93 186.24, 232.00 215.82 C 273.07 245.40, 314.13 262.78, 355.20 285.15 C 396.27 307.52, 438.07 329.48, 478.40 350.03 C 518.73 370.59, 556.87 390.10, 597.20 408.48 C 637.53 426.86, 679.33 443.59, 720.40 460.31 C 761.47 477.03, 823.07 500.71, 843.60 508.79" fill="none" stroke="#ef4444" stroke-width="3.2" stroke-linecap="round" stroke-linejoin="round"/>
  <path d="M 108.80 167.65 C 129.33 180.61, 190.93 223.79, 232.00 245.43 C 273.07 267.06, 314.13 280.21, 355.20 297.45 C 396.27 314.68, 438.07 332.28, 478.40 348.84 C 518.73 365.39, 556.87 381.50, 597.20 396.80 C 637.53 412.09, 679.33 426.58, 720.40 440.62 C 761.47 454.65, 823.07 474.28, 843.60 481.01" fill="none" stroke="#22a455" stroke-width="3.2" stroke-linecap="round" stroke-linejoin="round"/>
  <circle cx="108.80" cy="107.67" r="4.2" fill="#ffffff" stroke="#ef4444" stroke-width="2"/>
  <circle cx="232.00" cy="215.82" r="4.2" fill="#ffffff" stroke="#ef4444" stroke-width="2"/>
  <circle cx="355.20" cy="285.15" r="4.2" fill="#ffffff" stroke="#ef4444" stroke-width="2"/>
  <circle cx="478.40" cy="350.03" r="4.2" fill="#ffffff" stroke="#ef4444" stroke-width="2"/>
  <circle cx="597.20" cy="408.48" r="4.2" fill="#ffffff" stroke="#ef4444" stroke-width="2"/>
  <circle cx="720.40" cy="460.31" r="4.2" fill="#ffffff" stroke="#ef4444" stroke-width="2"/>
  <circle cx="843.60" cy="508.79" r="4.2" fill="#ffffff" stroke="#ef4444" stroke-width="2"/>
  <circle cx="108.80" cy="167.65" r="4.2" fill="#ffffff" stroke="#22a455" stroke-width="2"/>
  <circle cx="232.00" cy="245.43" r="4.2" fill="#ffffff" stroke="#22a455" stroke-width="2"/>
  <circle cx="355.20" cy="297.45" r="4.2" fill="#ffffff" stroke="#22a455" stroke-width="2"/>
  <circle cx="478.40" cy="348.84" r="4.2" fill="#ffffff" stroke="#22a455" stroke-width="2"/>
  <circle cx="597.20" cy="396.80" r="4.2" fill="#ffffff" stroke="#22a455" stroke-width="2"/>
  <circle cx="720.40" cy="440.62" r="4.2" fill="#ffffff" stroke="#22a455" stroke-width="2"/>
  <circle cx="843.60" cy="481.01" r="4.2" fill="#ffffff" stroke="#22a455" stroke-width="2"/>
  <text class="font small" x="116.80" y="100.67" fill="#ef4444">2.8098</text>
  <text class="font small" x="116.80" y="183.65" fill="#22a455">2.6678</text>
  <text class="font callout" x="157.20" y="112.00" fill="#178f45">WS starts lower</text>
  <path d="M 245.20 121.00 C 320.00 143.00, 372.80 272.31, 355.20 297.45" fill="none" stroke="#22a455" stroke-width="1.5" marker-end="url(#arrowGreen)"/>
  <text class="font callout" x="522.40" y="323.00" fill="#ef4444">C100 overtakes</text>
  <text class="font small" x="522.40" y="341.00">around opt step 111</text>
  <path d="M 628.00 337.78 C 562.00 346.23, 522.40 350.46, 478.40 349.43" fill="none" stroke="#ef4444" stroke-width="1.5" marker-end="url(#arrowRed)"/>
  <line x1="746" y1="104" x2="770" y2="104" stroke="#ef4444" stroke-width="3"/>
  <text class="font legend" x="780" y="109" fill="#ef4444">C100</text>
  <line x1="842" y1="104" x2="866" y2="104" stroke="#22a455" stroke-width="3"/>
  <text class="font legend" x="876" y="109" fill="#22a455">WS</text>
  <text class="font tick" x="936" y="558" text-anchor="end">optimizer_step</text>
</svg>