<svg xmlns="http://www.w3.org/2000/svg" width="650" height="650" viewBox="0 0 650 650">
<g>
<path d="M 321.30 324.00 L 295.51 324.00 L 260.40 359.10 C257.40,362.10 254.64,364.86 252.12,367.40 C233.54,386.02 227.16,392.42 225.01,391.22 C223.88,390.60 223.92,387.88 223.98,383.75 C224.00,382.67 224.02,381.50 224.01,380.25 C224.00,373.73 223.65,371.00 222.80,371.00 C221.87,371.00 221.87,370.73 222.80,369.80 C223.63,368.97 224.00,363.69 224.00,352.51 L 224.00 336.42 L 228.31 332.19 C230.68,329.86 232.94,328.27 233.32,328.65 C233.70,329.04 233.73,332.82 233.37,337.06 C233.02,341.29 233.05,346.46 233.44,348.55 L 234.15 352.33 L 260.33 326.17 L 286.51 300.00 L 316.01 299.99 C348.78,299.97 353.88,299.32 364.21,293.81 C370.23,290.60 378.82,282.18 381.65,276.72 C387.04,266.28 388.72,250.22 385.51,239.66 C381.92,227.81 372.58,216.94 362.00,212.27 C358.98,210.93 355.45,209.33 354.16,208.70 C352.87,208.08 346.81,202.21 340.68,195.66 L 329.55 183.76 L 343.02 184.23 C361.30,184.86 371.86,188.45 387.24,199.26 C388.73,200.30 389.50,199.96 392.43,196.99 C395.38,193.99 395.91,192.73 396.14,188.10 C396.38,183.11 396.15,182.49 393.24,180.06 C389.03,176.55 379.17,171.72 369.78,168.56 C362.04,165.96 340.66,163.42 337.32,164.71 C336.45,165.04 334.34,166.83 332.62,168.69 C322.75,179.38 305.79,166.98 312.51,153.98 C316.45,146.36 327.80,145.54 334.06,152.41 L 337.06 155.72 L 349.78 156.27 C368.56,157.10 382.54,161.76 399.20,172.76 C402.05,174.64 404.32,175.23 408.98,175.29 C415.01,175.38 415.09,175.35 420.39,170.11 C425.48,165.08 425.71,164.63 425.26,160.58 C424.37,152.73 429.53,147.00 437.50,147.00 C444.92,147.00 450.00,152.08 450.00,159.50 C450.00,167.63 444.22,172.71 436.22,171.62 C431.87,171.02 431.65,171.13 426.27,176.51 C420.87,181.91 420.76,182.13 420.77,187.76 C420.77,192.90 421.31,194.38 425.86,201.87 C428.66,206.48 431.90,212.78 433.07,215.87 C435.60,222.61 439.00,235.49 439.01,238.41 C439.01,239.67 440.17,241.16 441.92,242.15 C450.62,247.10 450.58,260.07 441.85,264.58 C440.28,265.39 439.00,266.85 439.00,267.84 C439.00,271.81 434.56,286.96 431.34,294.00 C429.45,298.12 426.14,304.21 423.98,307.53 C420.37,313.06 420.14,313.84 421.09,317.03 C422.43,321.53 420.39,327.62 416.59,330.46 C414.48,332.03 412.33,332.50 407.18,332.51 C401.10,332.53 400.02,332.86 395.13,336.27 C381.82,345.54 365.30,350.93 347.72,351.74 C336.14,352.27 335.92,352.32 334.30,355.06 C330.31,361.83 320.36,362.56 314.32,356.52 C311.43,353.63 311.00,352.54 311.00,348.12 C311.00,343.91 311.50,342.47 313.92,339.77 C316.66,336.69 317.23,336.50 323.53,336.50 C330.07,336.50 330.31,336.59 333.59,340.39 L 336.95 344.28 L 345.73 343.58 C362.12,342.29 379.14,336.50 391.41,328.06 C395.51,325.24 395.83,324.69 396.23,319.77 C396.62,314.85 396.41,314.25 393.12,310.75 C391.18,308.69 389.17,307.00 388.66,307.00 C388.15,307.00 384.70,308.99 381.01,311.43 C364.80,322.10 355.79,324.00 321.30,324.00 ZM 207.89 325.81 L 208.23 337.11 L 195.77 349.69 C184.29,361.27 183.25,362.07 182.66,359.88 C181.85,356.84 181.80,248.69 182.61,246.58 C183.03,245.47 184.52,245.00 187.61,245.00 L 192.00 245.00 L 192.00 233.00 L 188.25 232.98 C186.19,232.98 183.93,232.61 183.24,232.17 C182.25,231.54 182.04,218.82 182.24,171.94 L 182.50 112.50 L 259.75 111.94 L 270.87 123.59 C276.99,130.00 282.00,135.64 282.00,136.12 C282.00,136.61 265.61,137.00 245.00,137.00 L 208.00 137.00 L 207.91 189.75 C207.85,218.76 207.63,247.90 207.41,254.50 L 207.01 266.50 L 199.00 267.11 L 199.00 278.00 L 215.00 278.00 L 215.00 282.50 C215.00,286.98 214.98,287.00 211.50,287.00 L 208.00 287.00 L 207.77 300.75 C207.65,308.31 207.70,319.59 207.89,325.81 ZM 399.22 303.73 C402.99,307.57 403.90,308.00 408.16,308.00 C412.62,308.00 413.08,307.74 415.82,303.75 C422.11,294.58 427.47,281.30 429.55,269.74 C430.15,266.42 429.86,265.61 427.07,262.76 C425.34,260.99 423.66,258.50 423.34,257.22 C422.30,253.08 423.82,247.79 426.96,244.54 C428.79,242.65 430.00,240.35 430.00,238.75 C430.00,234.05 424.95,219.76 419.74,209.75 C414.70,200.05 414.65,200.00 410.92,200.00 C408.85,200.00 406.48,199.74 405.65,199.42 C404.71,199.06 402.40,200.43 399.62,202.99 L 395.11 207.15 L 398.53 211.91 C407.21,223.99 411.44,237.61 411.44,253.50 C411.44,268.91 407.21,282.38 398.58,294.48 L 395.03 299.45 ZM 236.39 268.66 C233.83,270.34 227.34,271.29 225.00,270.33 C215.63,266.49 213.52,254.95 221.03,248.63 L 224.00 246.13 L 224.00 157.00 L 275.78 157.00 L 276.41 154.50 C277.02,152.06 277.27,152.00 286.06,152.00 L 295.08 152.00 L 294.79 161.25 L 294.50 170.50 L 286.50 170.59 C278.08,170.69 276.00,169.96 276.00,166.88 C276.00,165.10 274.88,165.00 255.02,165.00 C234.09,165.00 234.04,165.01 233.48,167.25 C233.17,168.49 233.05,186.60 233.21,207.50 L 233.50 245.50 L 237.17 249.07 C241.80,253.58 242.88,258.34 240.44,263.48 C239.49,265.50 237.66,267.83 236.39,268.66 ZM 233.00 465.38 L 233.00 470.52 L 216.71 486.79 L 200.42 503.05 L 197.57 500.07 L 194.71 497.09 L 209.35 481.95 C223.53,467.30 224.00,466.67 224.00,462.57 C224.00,459.16 223.55,458.10 221.67,457.09 C218.70,455.50 216.00,450.96 216.00,447.55 C216.00,444.12 218.33,439.68 221.37,437.28 C223.67,435.47 223.81,434.74 224.14,422.20 L 224.50 409.03 L 228.22 405.32 C230.26,403.27 232.13,401.80 232.37,402.05 C232.61,402.30 232.96,409.70 233.13,418.50 L 233.45 434.50 L 237.23 438.10 C240.66,441.37 241.00,442.17 241.00,446.96 C241.00,451.78 240.66,452.58 237.00,456.24 C233.37,459.87 233.00,460.71 233.00,465.38 ZM 315.46 136.06 C315.14,136.58 311.15,137.00 306.58,137.00 L 298.28 137.00 L 274.50 112.50 L 284.00 112.19 L 293.50 111.87 L 304.77 123.50 C310.97,129.90 315.78,135.55 315.46,136.06 ZM 207.58 472.68 C207.26,473.68 201.69,479.80 195.21,486.28 L 183.43 498.06 L 180.67 495.18 L 177.91 492.29 L 190.06 479.65 C196.74,472.69 202.77,467.00 203.45,467.00 C205.52,467.00 208.23,470.71 207.58,472.68 ZM 168.61 512.83 C161.61,519.62 160.97,520.00 156.61,520.00 C154.07,520.00 152.00,519.64 152.00,519.19 C152.00,517.92 170.24,500.00 171.53,500.00 C172.91,500.00 176.00,503.23 176.00,504.66 C176.00,505.21 172.67,508.89 168.61,512.83 ZM 385.02 154.43 C384.49,155.85 383.70,156.93 383.27,156.85 C382.85,156.76 378.56,155.35 373.75,153.70 C365.50,150.87 365.00,150.53 365.00,147.85 C365.00,145.49 365.42,145.00 367.45,145.00 C370.84,145.00 386.00,149.89 386.00,150.98 C386.00,151.47 385.56,153.02 385.02,154.43 ZM 188.70 514.80 C183.85,519.59 183.06,520.00 178.72,520.00 C176.12,520.00 174.00,519.65 174.00,519.22 C174.00,518.05 187.39,505.00 188.60,505.00 C189.18,505.00 190.62,506.03 191.81,507.30 L 193.97 509.60 ZM 232.80 299.75 C232.50,306.46 232.48,306.50 229.46,306.80 C227.79,306.96 226.11,306.77 225.71,306.38 C225.32,305.99 225.00,302.82 225.00,299.33 L 225.00 293.00 L 233.09 293.00 ZM 221.50 303.00 C221.50,310.44 221.48,310.50 218.74,310.82 C215.29,311.21 214.82,310.03 215.20,301.89 C215.50,295.52 215.51,295.50 218.50,295.50 L 221.50 295.50 ZM 242.79 285.75 C242.50,293.38 242.46,293.50 239.75,293.82 L 237.00 294.13 L 237.00 278.00 L 243.08 278.00 ZM 441.46 208.02 C437.55,209.50 437.21,209.33 434.90,204.81 L 432.76 200.61 L 434.99 198.81 C436.22,197.81 437.61,197.00 438.09,197.00 C438.57,197.00 440.11,199.26 441.51,202.02 L 444.05 207.03 ZM 232.81 315.75 C232.53,319.13 232.20,319.52 229.50,319.69 C225.08,319.98 224.36,319.34 224.81,315.48 C225.20,312.16 225.40,312.00 229.17,312.00 L 233.12 312.00 ZM 399.23 160.39 C397.96,163.19 396.76,163.47 393.29,161.80 C391.22,160.80 391.17,160.56 392.57,157.87 C394.22,154.68 395.69,154.32 398.52,156.39 C400.15,157.58 400.25,158.15 399.23,160.39 ZM 448.73 221.61 C448.52,221.81 446.95,222.26 445.23,222.60 C442.44,223.16 442.02,222.93 441.43,220.57 C440.63,217.39 440.78,217.19 444.69,216.41 C447.39,215.87 447.81,216.11 448.42,218.52 C448.79,220.01 448.93,221.40 448.73,221.61 Z" fill="rgb(44,141,222)"/>
<path d="M 275.00 396.00 L 275.00 471.52 L 227.00 519.48 L 227.00 486.47 L 250.00 463.53 L 250.00 384.52 L 270.74 363.76 C282.15,352.34 291.80,343.00 292.18,343.00 C292.56,343.00 292.69,349.30 292.48,357.00 L 292.08 371.00 L 325.29 370.99 C354.82,370.98 359.55,370.75 368.00,368.95 C369.32,368.67 370.53,368.41 371.63,368.17 C380.16,366.33 382.67,365.79 383.85,366.80 C384.49,367.36 384.73,368.38 385.35,369.91 L 387.00 374.03 L 390.75 372.42 C392.81,371.54 395.09,370.58 395.81,370.28 C396.57,369.96 396.83,369.07 396.43,368.12 C393.79,361.83 393.53,360.68 394.65,360.29 C395.29,360.08 399.79,357.56 404.65,354.71 C416.83,347.56 435.55,329.01 442.70,317.00 C454.54,297.13 458.92,282.04 459.71,258.41 C460.13,245.94 459.87,240.09 458.57,232.41 C455.67,215.33 449.16,198.95 439.88,185.36 L 437.05 181.21 L 440.74 180.52 C446.04,179.53 449.15,177.68 453.32,173.06 C455.34,170.83 457.33,169.00 457.75,169.01 C458.90,169.02 465.30,179.48 470.28,189.50 C490.64,230.44 489.46,282.78 467.28,323.00 C445.41,362.66 404.75,389.81 359.50,394.96 C354.55,395.52 333.51,395.99 312.75,395.99 ZM 263.27 308.23 C256.81,314.71 251.19,320.00 250.77,320.00 C250.34,320.00 250.00,289.41 250.00,252.03 L 250.00 184.06 L 282.79 184.06 L 315.58 184.06 L 326.75 195.90 C332.89,202.42 337.63,208.03 337.29,208.38 C336.95,208.72 322.79,209.00 305.83,209.00 L 275.00 209.00 L 275.00 296.47 ZM 207.87 418.60 L 208.05 450.70 L 195.72 463.38 C188.94,470.35 183.07,475.74 182.69,475.36 C182.31,474.98 182.00,453.03 182.00,426.58 L 182.00 378.49 L 207.30 353.20 C213.60,346.90 219.45,341.19 224.00,336.86 L 224.00 352.51 C224.00,363.69 223.63,368.97 222.80,369.80 C221.87,370.73 221.87,371.00 222.80,371.00 C222.85,371.00 222.90,371.01 222.95,371.03 L 215.59 378.50 L 207.70 386.50 ZM 417.00 156.47 C417.00,157.86 416.66,159.00 416.24,159.00 C415.82,159.00 412.35,156.90 408.53,154.34 C389.71,141.71 368.34,136.04 339.48,136.01 L 331.47 136.00 L 320.23 124.73 C314.06,118.54 309.00,113.14 309.00,112.73 C309.00,111.62 351.75,111.86 362.79,113.04 C382.35,115.13 404.62,123.19 422.13,134.51 C428.98,138.95 429.30,139.31 427.46,140.63 C420.74,145.46 417.00,151.13 417.00,156.47 ZM 216.78 509.25 L 216.50 519.50 L 206.25 519.78 C200.61,519.94 196.00,519.67 196.00,519.18 C196.00,517.65 214.16,499.00 215.65,499.00 C216.80,499.00 217.02,500.94 216.78,509.25 ZM 446.79 292.75 C444.81,298.12 444.16,298.54 440.26,296.97 L 438.02 296.07 L 440.67 288.79 C442.13,284.78 443.41,281.38 443.50,281.24 C443.60,281.10 445.10,281.27 446.83,281.62 C450.39,282.33 450.39,282.97 446.79,292.75 ZM 398.57 350.40 C396.14,351.83 393.77,353.00 393.31,353.00 C392.39,353.00 390.00,349.52 390.00,348.17 C390.00,347.27 399.92,341.55 400.43,342.15 C400.99,342.81 403.00,346.87 403.00,347.34 C403.00,347.60 401.01,348.98 398.57,350.40 ZM 376.94 360.06 C374.74,361.45 371.99,361.17 371.47,359.50 C371.21,358.67 370.80,357.36 370.56,356.58 C370.12,355.16 371.93,354.00 374.60,354.00 C375.40,354.00 376.57,355.16 377.21,356.57 C378.16,358.65 378.11,359.32 376.94,360.06 ZM 224.62 390.87 C224.73,391.02 224.86,391.14 225.01,391.22 C225.99,391.77 227.86,390.73 231.38,387.65 C227.49,391.37 225.16,393.49 225.04,393.38 C224.92,393.26 224.77,392.33 224.62,390.87 ZM 223.56 372.23 C223.87,373.61 224.01,376.20 224.01,380.25 C224.01,380.85 224.01,381.44 224.01,382.00 ZM 233.29 328.63 C233.30,328.63 233.30,328.63 233.30,328.64 C233.31,328.64 233.31,328.64 233.31,328.65 C233.30,328.64 233.30,328.63 233.29,328.63 Z" fill="rgb(58,65,73)"/>
<path d="M 0.00 325.00 L 0.00 0.00 L 325.00 0.00 L 650.00 0.00 L 650.00 325.00 L 650.00 650.00 L 325.00 650.00 L 0.00 650.00 L 0.00 325.00 ZM 168.61 512.83 C172.67,508.89 176.00,505.21 176.00,504.66 C176.00,503.23 172.91,500.00 171.53,500.00 C170.24,500.00 152.00,517.92 152.00,519.19 C152.00,519.64 154.07,520.00 156.61,520.00 C160.97,520.00 161.61,519.62 168.61,512.83 ZM 188.70 514.80 L 193.97 509.60 L 191.81 507.30 C190.62,506.03 189.18,505.00 188.60,505.00 C187.39,505.00 174.00,518.05 174.00,519.22 C174.00,519.65 176.12,520.00 178.72,520.00 C183.06,520.00 183.85,519.59 188.70,514.80 ZM 216.78 509.25 C217.02,500.94 216.80,499.00 215.65,499.00 C214.16,499.00 196.00,517.65 196.00,519.18 C196.00,519.67 200.61,519.94 206.25,519.78 L 216.50 519.50 L 216.78 509.25 ZM 275.00 433.76 L 275.00 396.00 L 312.75 395.99 C333.51,395.99 354.55,395.52 359.50,394.96 C404.75,389.81 445.41,362.66 467.28,323.00 C489.46,282.78 490.64,230.44 470.28,189.50 C465.30,179.48 458.90,169.02 457.75,169.01 C457.33,169.00 455.34,170.83 453.32,173.06 C449.15,177.68 446.04,179.53 440.74,180.52 L 437.05 181.21 L 439.88 185.36 C449.16,198.95 455.67,215.33 458.57,232.41 C459.87,240.09 460.13,245.94 459.71,258.41 C458.92,282.04 454.54,297.13 442.70,317.00 C435.55,329.01 416.83,347.56 404.65,354.71 C399.79,357.56 395.29,360.08 394.65,360.29 C393.53,360.68 393.79,361.83 396.43,368.12 C396.83,369.07 396.57,369.96 395.81,370.28 C395.09,370.58 392.81,371.54 390.75,372.42 L 387.00 374.03 L 385.35 369.91 C383.47,365.23 385.05,365.31 368.00,368.95 C359.55,370.75 354.82,370.98 325.29,370.99 L 292.08 371.00 L 292.48 357.00 C292.69,349.30 292.56,343.00 292.18,343.00 C291.80,343.00 282.15,352.34 270.74,363.76 L 250.00 384.52 L 250.00 424.03 L 250.00 463.53 L 238.50 475.00 L 227.00 486.47 L 227.00 502.98 L 227.00 519.48 L 251.00 495.50 L 275.00 471.52 L 275.00 433.76 ZM 233.00 465.38 C233.00,460.71 233.37,459.87 237.00,456.24 C240.66,452.58 241.00,451.78 241.00,446.96 C241.00,442.17 240.66,441.37 237.23,438.10 L 233.45 434.50 L 233.13 418.50 C232.96,409.70 232.61,402.30 232.37,402.05 C232.13,401.80 230.26,403.27 228.22,405.32 L 224.50 409.03 L 224.14 422.20 C223.81,434.74 223.67,435.47 221.37,437.28 C218.33,439.68 216.00,444.12 216.00,447.55 C216.00,450.96 218.70,455.50 221.67,457.09 C223.55,458.10 224.00,459.16 224.00,462.57 C224.00,466.67 223.53,467.30 209.35,481.95 L 194.71 497.09 L 197.57 500.07 L 200.42 503.05 L 216.71 486.79 L 233.00 470.52 L 233.00 465.38 ZM 207.58 472.68 C208.23,470.71 205.52,467.00 203.45,467.00 C202.77,467.00 196.74,472.69 190.06,479.65 L 177.91 492.29 L 180.67 495.18 L 183.43 498.06 L 195.21 486.28 C201.69,479.80 207.26,473.68 207.58,472.68 ZM 207.87 418.60 L 207.70 386.50 L 215.59 378.50 L 223.48 370.50 L 223.99 381.67 C224.27,387.81 224.74,393.08 225.04,393.38 C225.34,393.68 241.32,378.19 260.54,358.96 L 295.49 324.00 L 321.29 324.00 C355.80,324.00 364.80,322.10 381.01,311.43 C384.70,308.99 388.15,307.00 388.66,307.00 C389.17,307.00 391.18,308.69 393.12,310.75 C396.41,314.25 396.62,314.85 396.23,319.77 C395.83,324.69 395.51,325.24 391.41,328.06 C379.14,336.50 362.12,342.29 345.73,343.58 L 336.95 344.28 L 333.59 340.39 C330.31,336.59 330.07,336.50 323.53,336.50 C317.23,336.50 316.66,336.69 313.92,339.77 C311.50,342.47 311.00,343.91 311.00,348.12 C311.00,352.54 311.43,353.63 314.32,356.52 C320.36,362.56 330.31,361.83 334.30,355.06 C335.92,352.32 336.14,352.27 347.72,351.74 C365.30,350.93 381.82,345.54 395.13,336.27 C400.02,332.86 401.10,332.53 407.18,332.51 C412.33,332.50 414.48,332.03 416.59,330.46 C420.39,327.62 422.43,321.53 421.09,317.03 C420.14,313.84 420.37,313.06 423.98,307.53 C426.14,304.21 429.45,298.12 431.34,294.00 C434.56,286.96 439.00,271.81 439.00,267.84 C439.00,266.85 440.28,265.39 441.85,264.58 C450.58,260.07 450.62,247.10 441.92,242.15 C440.17,241.16 439.01,239.67 439.01,238.41 C439.00,235.49 435.60,222.61 433.07,215.87 C431.90,212.78 428.66,206.48 425.86,201.87 C421.31,194.38 420.77,192.90 420.77,187.76 C420.76,182.13 420.87,181.91 426.27,176.51 C431.65,171.13 431.87,171.02 436.22,171.62 C444.22,172.71 450.00,167.63 450.00,159.50 C450.00,152.08 444.92,147.00 437.50,147.00 C429.53,147.00 424.37,152.73 425.26,160.58 C425.71,164.63 425.48,165.08 420.39,170.11 C415.09,175.35 415.01,175.38 408.98,175.29 C404.32,175.23 402.05,174.64 399.20,172.76 C382.54,161.76 368.56,157.10 349.78,156.27 L 337.06 155.72 L 334.06 152.41 C327.80,145.54 316.45,146.36 312.51,153.98 C305.79,166.98 322.75,179.38 332.62,168.69 C334.34,166.83 336.45,165.04 337.32,164.71 C340.66,163.42 362.04,165.96 369.78,168.56 C379.17,171.72 389.03,176.55 393.24,180.06 C396.15,182.49 396.38,183.11 396.14,188.10 C395.91,192.73 395.38,193.99 392.43,196.99 C389.50,199.96 388.73,200.30 387.24,199.26 C371.86,188.45 361.30,184.86 343.02,184.23 L 329.55 183.76 L 340.68 195.66 C346.81,202.21 352.87,208.08 354.16,208.70 C355.45,209.33 358.98,210.93 362.00,212.27 C372.58,216.94 381.92,227.81 385.51,239.66 C388.72,250.22 387.04,266.28 381.65,276.72 C378.82,282.18 370.23,290.60 364.21,293.81 C353.88,299.32 348.78,299.97 316.01,299.99 L 286.51 300.00 L 260.33 326.17 L 234.15 352.33 L 233.44 348.55 C233.05,346.46 233.02,341.29 233.37,337.06 C233.73,332.82 233.70,329.03 233.30,328.64 C232.91,328.24 221.21,339.30 207.30,353.20 L 182.00 378.49 L 182.00 426.58 C182.00,453.03 182.31,474.98 182.69,475.36 C183.07,475.74 188.94,470.35 195.72,463.38 L 208.05 450.70 L 207.87 418.60 ZM 207.89 325.81 C207.70,319.59 207.65,308.31 207.77,300.75 L 208.00 287.00 L 211.50 287.00 C214.98,287.00 215.00,286.98 215.00,282.50 L 215.00 278.00 L 207.00 278.00 L 199.00 278.00 L 199.00 272.56 L 199.00 267.11 L 203.01 266.81 L 207.01 266.50 L 207.41 254.50 C207.63,247.90 207.85,218.76 207.91,189.75 L 208.00 137.00 L 245.00 137.00 C265.61,137.00 282.00,136.61 282.00,136.12 C282.00,135.64 276.99,130.00 270.87,123.59 L 259.75 111.94 L 221.12 112.22 L 182.50 112.50 L 182.24 171.94 C182.04,218.82 182.25,231.54 183.24,232.17 C183.93,232.61 186.19,232.98 188.25,232.98 L 192.00 233.00 L 192.00 239.00 L 192.00 245.00 L 187.61 245.00 C184.52,245.00 183.03,245.47 182.61,246.58 C181.80,248.69 181.85,356.84 182.66,359.88 C183.25,362.07 184.29,361.27 195.77,349.69 L 208.23 337.11 L 207.89 325.81 ZM 376.94 360.06 C378.11,359.32 378.16,358.65 377.21,356.57 C376.57,355.16 375.40,354.00 374.60,354.00 C371.93,354.00 370.12,355.16 370.56,356.58 C370.80,357.36 371.21,358.67 371.47,359.50 C371.99,361.17 374.74,361.45 376.94,360.06 ZM 398.57 350.40 C401.01,348.98 403.00,347.60 403.00,347.34 C403.00,346.87 400.99,342.81 400.43,342.15 C399.92,341.55 390.00,347.27 390.00,348.17 C390.00,349.52 392.39,353.00 393.31,353.00 C393.77,353.00 396.14,351.83 398.57,350.40 ZM 232.81 315.75 L 233.12 312.00 L 229.17 312.00 C225.40,312.00 225.20,312.16 224.81,315.48 C224.36,319.34 225.08,319.98 229.50,319.69 C232.20,319.52 232.53,319.13 232.81,315.75 ZM 263.27 308.23 L 275.00 296.47 L 275.00 252.73 L 275.00 209.00 L 305.83 209.00 C322.79,209.00 336.95,208.72 337.29,208.38 C337.63,208.03 332.89,202.42 326.75,195.90 L 315.58 184.06 L 282.79 184.06 L 250.00 184.06 L 250.00 252.03 C250.00,289.41 250.34,320.00 250.77,320.00 C251.19,320.00 256.81,314.71 263.27,308.23 ZM 221.50 303.00 L 221.50 295.50 L 218.50 295.50 C215.51,295.50 215.50,295.52 215.20,301.89 C214.82,310.03 215.29,311.21 218.74,310.82 C221.48,310.50 221.50,310.44 221.50,303.00 ZM 232.80 299.75 L 233.09 293.00 L 229.05 293.00 L 225.00 293.00 L 225.00 299.33 C225.00,302.82 225.32,305.99 225.71,306.38 C226.11,306.77 227.79,306.96 229.46,306.80 C232.48,306.50 232.50,306.46 232.80,299.75 ZM 446.79 292.75 C450.39,282.97 450.39,282.33 446.83,281.62 C445.10,281.27 443.60,281.10 443.50,281.24 C443.41,281.38 442.13,284.78 440.67,288.79 L 438.02 296.07 L 440.26 296.97 C444.16,298.54 444.81,298.12 446.79,292.75 ZM 242.79 285.75 L 243.08 278.00 L 240.04 278.00 L 237.00 278.00 L 237.00 286.07 L 237.00 294.13 L 239.75 293.82 C242.46,293.50 242.50,293.38 242.79,285.75 ZM 236.39 268.66 C237.66,267.83 239.49,265.50 240.44,263.48 C242.88,258.34 241.80,253.58 237.17,249.07 L 233.50 245.50 L 233.21 207.50 C233.05,186.60 233.17,168.49 233.48,167.25 C234.04,165.01 234.09,165.00 255.02,165.00 C274.88,165.00 276.00,165.10 276.00,166.88 C276.00,169.96 278.08,170.69 286.50,170.59 L 294.50 170.50 L 294.79 161.25 L 295.08 152.00 L 286.06 152.00 C277.27,152.00 277.02,152.06 276.41,154.50 L 275.78 157.00 L 249.89 157.00 L 224.00 157.00 L 224.00 201.56 L 224.00 246.13 L 221.03 248.63 C213.52,254.95 215.63,266.49 225.00,270.33 C227.34,271.29 233.83,270.34 236.39,268.66 ZM 448.73 221.61 C448.93,221.40 448.79,220.01 448.42,218.52 C447.81,216.11 447.39,215.87 444.69,216.41 C440.78,217.19 440.63,217.39 441.43,220.57 C442.02,222.93 442.44,223.16 445.23,222.60 C446.95,222.26 448.52,221.81 448.73,221.61 ZM 441.46 208.02 L 444.05 207.03 L 441.51 202.02 C440.11,199.26 438.57,197.00 438.09,197.00 C437.61,197.00 436.22,197.81 434.99,198.81 L 432.76 200.61 L 434.90 204.81 C437.21,209.33 437.55,209.50 441.46,208.02 ZM 399.23 160.39 C400.25,158.15 400.15,157.58 398.52,156.39 C395.69,154.32 394.22,154.68 392.57,157.87 C391.17,160.56 391.22,160.80 393.29,161.80 C396.76,163.47 397.96,163.19 399.23,160.39 ZM 417.00 156.47 C417.00,151.13 420.74,145.46 427.46,140.63 C429.30,139.31 428.98,138.95 422.13,134.51 C404.62,123.19 382.35,115.13 362.79,113.04 C351.75,111.86 309.00,111.62 309.00,112.73 C309.00,113.14 314.06,118.54 320.23,124.73 L 331.47 136.00 L 339.48 136.01 C368.34,136.04 389.71,141.71 408.53,154.34 C412.35,156.90 415.82,159.00 416.24,159.00 C416.66,159.00 417.00,157.86 417.00,156.47 ZM 385.02 154.43 C385.56,153.02 386.00,151.47 386.00,150.98 C386.00,149.89 370.84,145.00 367.45,145.00 C365.42,145.00 365.00,145.49 365.00,147.85 C365.00,150.53 365.50,150.87 373.75,153.70 C378.56,155.35 382.85,156.76 383.27,156.85 C383.70,156.93 384.49,155.85 385.02,154.43 ZM 315.46 136.06 C315.78,135.55 310.97,129.90 304.77,123.50 L 293.50 111.87 L 284.00 112.19 L 274.50 112.50 L 286.39 124.75 L 298.28 137.00 L 306.58 137.00 C311.15,137.00 315.14,136.58 315.46,136.06 ZM 399.22 303.73 L 395.03 299.45 L 398.58 294.48 C407.21,282.38 411.44,268.91 411.44,253.50 C411.44,237.61 407.21,223.99 398.53,211.91 L 395.11 207.15 L 399.62 202.99 C402.40,200.43 404.71,199.06 405.65,199.42 C406.48,199.74 408.85,200.00 410.92,200.00 C414.65,200.00 414.70,200.05 419.74,209.75 C424.95,219.76 430.00,234.05 430.00,238.75 C430.00,240.35 428.79,242.65 426.96,244.54 C423.82,247.79 422.30,253.08 423.34,257.22 C423.66,258.50 425.34,260.99 427.07,262.76 C429.86,265.61 430.15,266.42 429.55,269.74 C427.47,281.30 422.11,294.58 415.82,303.75 C413.08,307.74 412.62,308.00 408.16,308.00 C403.90,308.00 402.99,307.57 399.22,303.73 Z" fill="rgb(244,247,250)"/>
</g>
</svg>